<svg xmlns="http://www.w3.org/2000/svg" xmlns:svg="http://www.w3.org/2000/svg" xmlns:xlink="http://www.w3.org/1999/xlink" version="1.0" height="490pt" width="749.9906729958816pt" viewBox="2165.0093270041184 66.99999999999997 757.9906729958816 496" ><defs><style type="text/css">
            @font-face {
                font-family: 'noto_regular';
                src: url('https://app.creately.com/d/assets/fonts/noto/noto-regular.woff') format('woff'),
                     url('https://app.creately.com/d/assets/fonts/noto/noto-regular.woff2') format('woff2');
                font-weight: normal;
                font-style: normal;
            }
        p {
            margin: 0;
        }
        </style></defs><defs>
        <style>
            span{ display: inline-block; }
            
        </style>
         <filter id="shadow6SGJaofpKXK"><feDropShadow dx="0" dy="8" stdDeviation="1.2" flood-color="rgba(0, 0, 0, 0.2)" /></filter>
        </defs><g id="X5DRzJ1ciIs"><g transform="translate(2170.0093270041184 200.00466519151215)"><ellipse cx="49.99533665515863" cy="49.99533665515863" rx="49.99533665515863" ry="49.99533665515863" fill="rgb(168,180,246)" stroke="#2a4dd1" stroke-width="2" stroke-linecap="round" stroke-linejoin="round" stroke-dasharray="0 0"/></g><g transform="translate(2211.484663659277, 231.9950018466708) rotate(0, 8.52, 18.005)" width="17.04" height="36.01"><text text-decoration="none" x="0.0004687499999995737" fill="#ffffff" font-size="20pt" font-family="noto_regular"  y="28.5">A</text><text text-decoration="none" x="17.03953125" fill="#4b4b4b" font-size="10pt" font-family="noto_regular"  y="28.5"></text></g></g><g id="b5BD6MmYGan"><g transform="translate(2330 110.00000000000001)"><ellipse cx="50" cy="50" rx="50" ry="50" fill="rgb(168,180,246)" stroke="#2a4dd1" stroke-width="2" stroke-linecap="round" stroke-linejoin="round" stroke-dasharray="0 0"/></g><g transform="translate(2371.325, 141.995) rotate(0, 8.675, 18.005)" width="17.35" height="36.01"><text text-decoration="none" x="0.0031250000000007105" fill="#ffffff" font-size="20pt" font-family="noto_regular"  y="28.5">B</text><text text-decoration="none" x="17.346875" fill="#4b4b4b" font-size="10pt" font-family="noto_regular"  y="28.5"></text></g></g><g id="3g8vKRddxhP"><g><path d="M 2270,250 L 2330,160" fill="none" stroke="#20293a" stroke-width="2" stroke-linecap="round" stroke-linejoin="round" stroke-dasharray="0 0"/><path d="M 2330,160 L 2320.3922308884803,164.04569393669402 L 2329.9608093492047,170.42474607952485 Z" fill="rgb(32,41,58)" stroke="#20293a" stroke-width="2" stroke-linecap="round" stroke-linejoin="round"/></g></g><g id="aa5xb8LoNLb"><g transform="translate(2330 280)"><ellipse cx="50" cy="50" rx="50" ry="50" fill="rgb(168,180,246)" stroke="#2a4dd1" stroke-width="2" stroke-linecap="round" stroke-linejoin="round" stroke-dasharray="0 0"/></g><g transform="translate(2371.57, 311.995) rotate(0, 8.43, 18.005)" width="16.86" height="36.01"><text text-decoration="none" x="0.004218749999999716" fill="#ffffff" font-size="20pt" font-family="noto_regular"  y="28.5">C</text><text text-decoration="none" x="16.85578125" fill="#4b4b4b" font-size="10pt" font-family="noto_regular"  y="28.5"></text></g></g><g id="AaksYsUO5iI"><g><path d="M 2270,250 L 2330,330" fill="none" stroke="#20293a" stroke-width="2" stroke-linecap="round" stroke-linejoin="round" stroke-dasharray="0 0"/><path d="M 2330,330 L 2329.3826086956524,319.5934782608696 L 2320.182608695652,326.49347826086955 Z" fill="rgb(32,41,58)" stroke="#20293a" stroke-width="2" stroke-linecap="round" stroke-linejoin="round"/></g></g><g id="hT6v0VO4RXk"><g transform="translate(2350 460)"><ellipse cx="50" cy="50" rx="50" ry="50" fill="rgb(168,180,246)" stroke="#2a4dd1" stroke-width="2" stroke-linecap="round" stroke-linejoin="round" stroke-dasharray="0 0"/></g><g transform="translate(2390.26, 491.995) rotate(0, 9.74, 18.005)" width="19.48" height="36.01"><text text-decoration="none" x="0.0017187500000002132" fill="#ffffff" font-size="20pt" font-family="noto_regular"  y="28.5">D</text><text text-decoration="none" x="19.478281250000002" fill="#4b4b4b" font-size="10pt" font-family="noto_regular"  y="28.5"></text></g></g><g id="BnJ0hBbGVly"><g><path d="M 2220,300 L 2400,460" fill="none" stroke="#20293a" stroke-width="2" stroke-linecap="round" stroke-linejoin="round" stroke-dasharray="0 0"/><path d="M 2400,460 L 2397.3211559689216,449.925246336171 L 2389.680736900775,458.52024467608385 Z" fill="rgb(32,41,58)" stroke="#20293a" stroke-width="2" stroke-linecap="round" stroke-linejoin="round"/></g></g><g id="MfEMWQn2dIU"><g transform="translate(2570 110.00000000000001)"><ellipse cx="50" cy="50" rx="50" ry="50" fill="rgb(168,180,246)" stroke="#2a4dd1" stroke-width="2" stroke-linecap="round" stroke-linejoin="round" stroke-dasharray="0 0"/></g><g transform="translate(2612.58, 141.995) rotate(0, 7.42, 18.005)" width="14.84" height="36.01"><text text-decoration="none" x="0.002031249999999929" fill="#ffffff" font-size="20pt" font-family="noto_regular"  y="28.5">E</text><text text-decoration="none" x="14.83796875" fill="#4b4b4b" font-size="10pt" font-family="noto_regular"  y="28.5"></text></g></g><g id="ACqGSv8u8n4"><g><path d="M 2430,330 L 2620,210" fill="none" stroke="#20293a" stroke-width="2" stroke-linecap="round" stroke-linejoin="round" stroke-dasharray="0 0"/><path d="M 2620,210 L 2609.5774628818585,209.78185612398914 L 2615.71838228282,219.5049785088453 Z" fill="rgb(32,41,58)" stroke="#20293a" stroke-width="2" stroke-linecap="round" stroke-linejoin="round"/></g></g><g id="ocdetfwW39s"><g><path d="M 2430,160 L 2570,160" fill="none" stroke="#20293a" stroke-width="2" stroke-linecap="round" stroke-linejoin="round" stroke-dasharray="0 0"/><path d="M 2570,160 L 2561.304347826087,154.25 L 2561.304347826087,165.75 Z" fill="rgb(32,41,58)" stroke="#20293a" stroke-width="2" stroke-linecap="round" stroke-linejoin="round"/></g></g><g id="SPMZOPCf8pI"><g transform="translate(2570 460)"><ellipse cx="50" cy="50" rx="50" ry="50" fill="rgb(168,180,246)" stroke="#2a4dd1" stroke-width="2" stroke-linecap="round" stroke-linejoin="round" stroke-dasharray="0 0"/></g><g transform="translate(2613.07, 491.995) rotate(0, 6.93, 18.005)" width="13.86" height="36.01"><text text-decoration="none" x="0.004218749999999716" fill="#ffffff" font-size="20pt" font-family="noto_regular"  y="28.5">F</text><text text-decoration="none" x="13.85578125" fill="#4b4b4b" font-size="10pt" font-family="noto_regular"  y="28.5"></text></g></g><g id="6leKzIMCyht"><g><path d="M 2450,510 L 2570,510" fill="none" stroke="#20293a" stroke-width="2" stroke-linecap="round" stroke-linejoin="round" stroke-dasharray="0 0"/><path d="M 2570,510 L 2561.304347826087,504.25 L 2561.304347826087,515.75 Z" fill="rgb(32,41,58)" stroke="#20293a" stroke-width="2" stroke-linecap="round" stroke-linejoin="round"/></g></g><g id="nkGyrf5Mk7c"><g transform="translate(2719.9999999999995 260)"><ellipse cx="50" cy="50" rx="50" ry="50" fill="rgb(168,180,246)" stroke="#2a4dd1" stroke-width="2" stroke-linecap="round" stroke-linejoin="round" stroke-dasharray="0 0"/></g><g transform="translate(2760.2949999999996, 291.995) rotate(0, 9.705, 18.005)" width="19.41" height="36.01"><text text-decoration="none" x="0.001875000000000071" fill="#ffffff" font-size="20pt" font-family="noto_regular"  y="28.5">G</text><text text-decoration="none" x="19.408125" fill="#4b4b4b" font-size="10pt" font-family="noto_regular"  y="28.5"></text></g></g><g id="SwOAo2BReN7"><g><path d="M 2670,510 L 2770,360" fill="none" stroke="#20293a" stroke-width="2" stroke-linecap="round" stroke-linejoin="round" stroke-dasharray="0 0"/><path d="M 2770,360 L 2760.3922308403817,364.0456938224688 L 2769.9608092252665,370.42474607905893 Z" fill="rgb(32,41,58)" stroke="#20293a" stroke-width="2" stroke-linecap="round" stroke-linejoin="round"/></g></g><g id="z928jGVj9JA"><g><path d="M 2670,160 L 2770,260" fill="none" stroke="#20293a" stroke-width="2" stroke-linecap="round" stroke-linejoin="round" stroke-dasharray="0 0"/><path d="M 2770,260 L 2767.917109372809,249.7853813891639 L 2759.785381389164,257.9171093728092 Z" fill="rgb(32,41,58)" stroke="#20293a" stroke-width="2" stroke-linecap="round" stroke-linejoin="round"/></g></g><g id="VkOkDXVKMYN"><g transform="translate(2370 70)"><rect x="0" y="0" width="140" height="40" fill="rgba(255,255,255,0.01)" stroke="rgba(255,255,255,0.01)"  stroke-dasharray="0 0"/></g><g transform="translate(2380, 80) rotate(0, 0, 0)" width="7.36" height="19.9"><text text-decoration="none" x="0" fill="#4b4b4b" font-size="10pt" font-family="noto_regular"  y="15">1</text><text text-decoration="none" x="7.359375" fill="#4b4b4b" font-size="10pt" font-family="noto_regular"  y="15"></text></g></g><g id="ccSRcvpj2qk"><g transform="translate(2590 69.99999999999997)"><rect x="0" y="0" width="140" height="40" fill="rgba(255,255,255,0.01)" stroke="rgba(255,255,255,0.01)"  stroke-dasharray="0 0"/></g><g transform="translate(2600, 79.99999999999997) rotate(0, 0, 0)" width="7.36" height="19.9"><text text-decoration="none" x="0" fill="#4b4b4b" font-size="10pt" font-family="noto_regular"  y="15">2</text><text text-decoration="none" x="7.359375" fill="#4b4b4b" font-size="10pt" font-family="noto_regular"  y="15"></text></g></g><g id="JyRAFXO0r0N"><g transform="translate(2360 240.00000000000006)"><rect x="0" y="0" width="140" height="40" fill="rgba(255,255,255,0.01)" stroke="rgba(255,255,255,0.01)"  stroke-dasharray="0 0"/></g><g transform="translate(2370, 250.00000000000006) rotate(0, 0, 0)" width="7.36" height="19.9"><text text-decoration="none" x="0" fill="#4b4b4b" font-size="10pt" font-family="noto_regular"  y="15">4</text><text text-decoration="none" x="7.359375" fill="#4b4b4b" font-size="10pt" font-family="noto_regular"  y="15"></text></g></g><g id="mGq8HZIjrPd"><g transform="translate(2210 170.00000168945314)"><rect x="0" y="0" width="43.33333333333333" height="40" fill="rgba(255,255,255,0.01)" stroke="rgba(255,255,255,0.01)"  stroke-dasharray="0 0"/></g><g transform="translate(2220, 180.00000168945314) rotate(0, 0, 0)" width="7.36" height="19.9"><text text-decoration="none" x="0" fill="#4b4b4b" font-size="10pt" font-family="noto_regular"  y="15">3</text><text text-decoration="none" x="7.359375" fill="#4b4b4b" font-size="10pt" font-family="noto_regular"  y="15"></text></g></g><g id="ZiJSiHiikx3"><g transform="translate(2380 420)"><rect x="0" y="0" width="140" height="40" fill="rgba(255,255,255,0.01)" stroke="rgba(255,255,255,0.01)"  stroke-dasharray="0 0"/></g><g transform="translate(2390, 430) rotate(0, 0, 0)" width="7.36" height="19.9"><text text-decoration="none" x="0" fill="#4b4b4b" font-size="10pt" font-family="noto_regular"  y="15">2</text><text text-decoration="none" x="7.359375" fill="#4b4b4b" font-size="10pt" font-family="noto_regular"  y="15"></text></g></g><g id="qoEIEi74G27"><g transform="translate(2780 229.99999999999994)"><rect x="0" y="0" width="140" height="40" fill="rgba(255,255,255,0.01)" stroke="rgba(255,255,255,0.01)"  stroke-dasharray="0 0"/></g><g transform="translate(2790, 239.99999999999994) rotate(0, 0, 0)" width="7.36" height="19.9"><text text-decoration="none" x="0" fill="#4b4b4b" font-size="10pt" font-family="noto_regular"  y="15">5</text><text text-decoration="none" x="7.359375" fill="#4b4b4b" font-size="10pt" font-family="noto_regular"  y="15"></text></g></g><g id="nsNQu2bAQyv"><g transform="translate(2590 420.00000000000006)"><rect x="0" y="0" width="140" height="40" fill="rgba(255,255,255,0.01)" stroke="rgba(255,255,255,0.01)"  stroke-dasharray="0 0"/></g><g transform="translate(2600, 430.00000000000006) rotate(0, 0, 0)" width="7.36" height="19.9"><text text-decoration="none" x="0" fill="#4b4b4b" font-size="10pt" font-family="noto_regular"  y="15">6</text><text text-decoration="none" x="7.359375" fill="#4b4b4b" font-size="10pt" font-family="noto_regular"  y="15"></text></g></g></svg>